<svg version="1.1" id="Layer_1" xmlns="http://www.w3.org/2000/svg" xmlns:xlink="http://www.w3.org/1999/xlink" x="0px" y="0px"
	 width="100%" viewBox="0 0 600 600" enable-background="new 0 0 600 600" xml:space="preserve">
<path fill="#FFFFFF" opacity="1.000000" stroke="none" 
	d="
M332.000000,601.000000 
	C221.333328,601.000000 111.166664,601.000000 1.000000,601.000000 
	C1.000000,401.000000 1.000000,201.000000 1.000000,1.000000 
	C201.000000,1.000000 401.000000,1.000000 601.000000,1.000000 
	C601.000000,201.000000 601.000000,401.000000 601.000000,601.000000 
	C511.500000,601.000000 422.000000,601.000000 332.000000,601.000000 
M337.803955,295.120361 
	C346.986542,288.878601 356.305817,282.827271 365.323029,276.355133 
	C383.553223,263.270325 397.421051,246.678787 405.398346,225.452866 
	C415.787109,197.810455 414.714905,169.263657 411.068909,140.834061 
	C408.446777,120.388100 403.862732,100.185944 399.926270,79.919228 
	C397.515656,67.508293 391.319611,62.787052 378.757416,63.094608 
	C368.646790,63.342144 360.711609,72.941483 362.604126,82.849930 
	C363.937134,89.829262 365.201660,96.854912 367.156555,103.670662 
	C368.482330,108.293121 367.463715,109.432816 362.765259,109.417885 
	C319.455261,109.280151 276.144623,109.332260 232.476257,108.477791 
	C233.180130,105.077835 233.928650,101.686386 234.578461,98.276123 
	C235.880203,91.444412 237.925339,84.633614 238.194351,77.756706 
	C238.523911,69.332329 230.547913,61.935295 221.906250,61.168240 
	C212.538300,60.336716 204.151321,66.087151 202.193344,75.093781 
	C199.483719,87.557945 196.765900,100.033211 194.579285,112.595573 
	C189.623993,141.064270 185.175552,169.590240 189.621201,198.627670 
	C192.008072,214.217758 196.730225,228.930450 205.030014,242.445068 
	C215.732819,259.872559 231.075729,272.441132 247.720398,283.694824 
	C253.578110,287.655273 259.394745,291.676483 264.596649,296.064178 
	C256.674805,301.216095 248.452087,305.964935 240.895157,311.605713 
	C226.157486,322.606476 213.151749,335.276520 204.024002,351.604401 
	C193.918365,369.681580 189.362793,389.345795 188.453506,409.622803 
	C187.758240,425.127380 188.474564,440.868469 190.396744,456.275604 
	C193.111038,478.031921 197.500351,499.580017 201.207230,521.211365 
	C203.108673,532.307129 211.882797,538.459045 223.428986,536.871460 
	C233.429092,535.496521 239.540054,526.958374 237.850784,516.072144 
	C236.383621,506.617310 234.401855,497.242859 232.684036,487.826202 
	C231.636429,482.083588 231.678787,482.046173 237.712021,482.045258 
	C280.509247,482.038910 323.306458,482.040833 366.425659,482.859314 
	C364.583527,493.451294 362.613312,504.023590 360.984192,514.648193 
	C360.546021,517.505676 360.532227,520.714233 361.382843,523.429810 
	C363.960236,531.658081 371.374451,536.160095 380.396729,535.574646 
	C388.256073,535.064636 395.101929,529.094910 396.722809,521.083252 
	C398.133789,514.108765 399.370483,507.097534 400.593964,500.086761 
	C406.646515,465.404114 412.508362,430.722931 408.168884,395.267273 
	C404.374268,364.263855 391.679138,337.908569 367.457764,317.818481 
	C357.887543,309.880585 347.425385,303.018066 337.803955,295.120361 
z"/>
<path fill="#1C1C1C" opacity="1.000000" stroke="none" 
	d="
M265.230133,295.669952 
	C259.394745,291.676483 253.578110,287.655273 247.720398,283.694824 
	C231.075729,272.441132 215.732819,259.872559 205.030014,242.445068 
	C196.730225,228.930450 192.008072,214.217758 189.621201,198.627670 
	C185.175552,169.590240 189.623993,141.064270 194.579285,112.595573 
	C196.765900,100.033211 199.483719,87.557945 202.193344,75.093781 
	C204.151321,66.087151 212.538300,60.336716 221.906250,61.168240 
	C230.547913,61.935295 238.523911,69.332329 238.194351,77.756706 
	C237.925339,84.633614 235.880203,91.444412 234.578461,98.276123 
	C233.928650,101.686386 233.180130,105.077835 232.580048,109.271515 
	C230.901093,121.085594 229.118362,132.105942 227.135956,143.482880 
	C226.411026,146.891922 225.541779,149.931473 225.426758,152.999298 
	C225.114716,161.322433 225.122452,169.657562 225.102661,178.383209 
	C227.026413,179.186249 228.850296,179.946701 230.675522,179.949936 
	C269.483368,180.018433 308.291382,180.001801 347.099365,180.001892 
	C354.927582,180.001907 362.760620,180.164032 370.581848,179.930466 
	C374.163483,179.823517 375.219971,181.121796 375.091980,184.539047 
	C375.010681,186.709869 375.813263,188.913788 376.224548,191.537628 
	C374.465088,198.963699 372.700562,205.955017 370.511841,212.738312 
	C323.751160,212.530273 277.414642,212.530273 230.486908,212.530273 
	C234.756180,224.388840 240.920685,234.049911 249.966507,240.920227 
	C263.557251,251.242416 278.005951,260.446625 292.236298,269.905914 
	C295.344208,271.971832 299.069122,273.109619 302.713226,274.938721 
	C314.400848,282.023682 325.885101,288.844788 337.369354,295.665894 
	C347.425385,303.018066 357.887543,309.880585 367.457764,317.818481 
	C391.679138,337.908569 404.374268,364.263855 408.168884,395.267273 
	C412.508362,430.722931 406.646515,465.404114 400.593964,500.086761 
	C399.370483,507.097534 398.133789,514.108765 396.722809,521.083252 
	C395.101929,529.094910 388.256073,535.064636 380.396729,535.574646 
	C371.374451,536.160095 363.960236,531.658081 361.382843,523.429810 
	C360.532227,520.714233 360.546021,517.505676 360.984192,514.648193 
	C362.613312,504.023590 364.583527,493.451294 366.371002,482.052612 
	C367.823792,470.426575 369.331268,459.607208 371.109467,448.485352 
	C372.181610,436.034271 372.983002,423.885681 373.790894,411.639191 
	C371.910431,411.381378 371.276093,411.217957 370.641846,411.218353 
	C322.212708,411.248718 273.783569,411.291992 225.241104,410.891235 
	C226.284515,402.563019 227.166702,394.623108 228.722610,386.817505 
	C229.420639,383.315704 231.467163,380.082672 233.377106,376.807983 
	C277.874542,376.888275 321.896606,376.888275 367.471222,376.888275 
	C363.856720,370.342743 361.188721,364.502808 357.633789,359.264832 
	C347.396515,344.180969 332.518494,334.323151 317.402191,324.897675 
	C311.697083,321.340393 305.542816,318.503448 299.374756,315.081390 
	C287.847504,308.439758 276.538818,302.054840 265.230133,295.669952 
z"/>
<path fill="#786FFE" opacity="1.000000" stroke="none" 
	d="
M370.838745,448.787842 
	C369.331268,459.607208 367.823792,470.426575 366.210022,481.643036 
	C323.306458,482.040833 280.509247,482.038910 237.712021,482.045258 
	C231.678787,482.046173 231.636429,482.083588 232.684036,487.826202 
	C234.401855,497.242859 236.383621,506.617310 237.850784,516.072144 
	C239.540054,526.958374 233.429092,535.496521 223.428986,536.871460 
	C211.882797,538.459045 203.108673,532.307129 201.207230,521.211365 
	C197.500351,499.580017 193.111038,478.031921 190.396744,456.275604 
	C188.474564,440.868469 187.758240,425.127380 188.453506,409.622803 
	C189.362793,389.345795 193.918365,369.681580 204.024002,351.604401 
	C213.151749,335.276520 226.157486,322.606476 240.895157,311.605713 
	C248.452087,305.964935 256.674805,301.216095 264.913391,295.867065 
	C276.538818,302.054840 287.847504,308.439758 299.118744,315.406738 
	C297.138031,317.247894 295.171906,318.473358 293.255096,319.771545 
	C280.663910,328.299103 267.743408,336.390198 255.602005,345.517151 
	C245.022919,353.469635 236.952637,363.768799 232.901749,376.727692 
	C231.467163,380.082672 229.420639,383.315704 228.722610,386.817505 
	C227.166702,394.623108 226.284515,402.563019 225.227341,411.335022 
	C225.621445,422.497040 226.212372,432.776001 226.078873,443.045593 
	C226.017044,447.802063 227.559921,448.872620 232.052719,448.858948 
	C278.314362,448.718048 324.576630,448.781403 370.838745,448.787842 
z"/>
<path fill="#786EFF" opacity="1.000000" stroke="none" 
	d="
M337.586670,295.393127 
	C325.885101,288.844788 314.400848,282.023682 303.038635,274.688599 
	C317.117676,265.261810 331.405334,256.818756 344.933411,247.296539 
	C357.077789,238.748322 366.017120,227.233810 370.936035,212.946335 
	C372.700562,205.955017 374.465088,198.963699 376.380646,191.128876 
	C376.489716,186.542892 376.447754,182.800430 376.490356,178.728226 
	C376.570831,178.171585 376.566772,177.944687 376.567566,177.268280 
	C375.958984,166.908630 375.217560,157.003860 374.802124,147.085449 
	C374.658203,143.648209 373.102081,143.028671 370.106689,143.033585 
	C322.516418,143.111649 274.925995,143.109848 227.335632,143.126297 
	C229.118362,132.105942 230.901093,121.085594 232.759003,109.697189 
	C276.144623,109.332260 319.455261,109.280151 362.765259,109.417885 
	C367.463715,109.432816 368.482330,108.293121 367.156555,103.670662 
	C365.201660,96.854912 363.937134,89.829262 362.604126,82.849930 
	C360.711609,72.941483 368.646790,63.342144 378.757416,63.094608 
	C391.319611,62.787052 397.515656,67.508293 399.926270,79.919228 
	C403.862732,100.185944 408.446777,120.388100 411.068909,140.834061 
	C414.714905,169.263657 415.787109,197.810455 405.398346,225.452866 
	C397.421051,246.678787 383.553223,263.270325 365.323029,276.355133 
	C356.305817,282.827271 346.986542,288.878601 337.586670,295.393127 
z"/>
<path fill="#FCFCFE" opacity="1.000000" stroke="none" 
	d="
M371.109436,448.485352 
	C324.576630,448.781403 278.314362,448.718048 232.052719,448.858948 
	C227.559921,448.872620 226.017044,447.802063 226.078873,443.045593 
	C226.212372,432.776001 225.621445,422.497040 225.340668,411.778076 
	C273.783569,411.291992 322.212708,411.248718 370.641846,411.218353 
	C371.276093,411.217957 371.910431,411.381378 373.790894,411.639191 
	C372.983002,423.885681 372.181610,436.034271 371.109436,448.485352 
z"/>
<path fill="#FDFDFE" opacity="1.000000" stroke="none" 
	d="
M370.511841,212.738312 
	C366.017120,227.233810 357.077789,238.748322 344.933411,247.296539 
	C331.405334,256.818756 317.117676,265.261810 302.835266,274.424744 
	C299.069122,273.109619 295.344208,271.971832 292.236298,269.905914 
	C278.005951,260.446625 263.557251,251.242416 249.966507,240.920227 
	C240.920685,234.049911 234.756180,224.388840 230.486908,212.530273 
	C277.414642,212.530273 323.751160,212.530273 370.511841,212.738312 
z"/>
<path fill="#FBFBFD" opacity="1.000000" stroke="none" 
	d="
M227.135956,143.482880 
	C274.925995,143.109848 322.516418,143.111649 370.106689,143.033585 
	C373.102081,143.028671 374.658203,143.648209 374.802124,147.085449 
	C375.217560,157.003860 375.958984,166.908630 376.300232,177.300507 
	C375.688293,177.893448 375.348511,178.004608 374.547119,178.025711 
	C324.391479,177.953079 274.697449,177.970520 225.003403,177.987946 
	C225.122452,169.657562 225.114716,161.322433 225.426758,152.999298 
	C225.541779,149.931473 226.411026,146.891922 227.135956,143.482880 
z"/>
<path fill="#FCFCFD" opacity="1.000000" stroke="none" 
	d="
M233.377106,376.807983 
	C236.952637,363.768799 245.022919,353.469635 255.602005,345.517151 
	C267.743408,336.390198 280.663910,328.299103 293.255096,319.771545 
	C295.171906,318.473358 297.138031,317.247894 299.337341,315.663452 
	C305.542816,318.503448 311.697083,321.340393 317.402191,324.897675 
	C332.518494,334.323151 347.396515,344.180969 357.633789,359.264832 
	C361.188721,364.502808 363.856720,370.342743 367.471222,376.888275 
	C321.896606,376.888275 277.874542,376.888275 233.377106,376.807983 
z"/>
<path fill="#0C0C0A" opacity="1.000000" stroke="none" 
	d="
M225.102661,178.383209 
	C274.697449,177.970520 324.391479,177.953079 374.648590,178.226028 
	C375.609711,178.696915 376.007721,178.877426 376.405762,179.057953 
	C376.447754,182.800430 376.489716,186.542892 376.375580,190.694122 
	C375.813263,188.913788 375.010681,186.709869 375.091980,184.539047 
	C375.219971,181.121796 374.163483,179.823517 370.581848,179.930466 
	C362.760620,180.164032 354.927582,180.001907 347.099365,180.001892 
	C308.291382,180.001801 269.483368,180.018433 230.675522,179.949936 
	C228.850296,179.946701 227.026413,179.186249 225.102661,178.383209 
z"/>
<path fill="#1C1C1C" opacity="1.000000" stroke="none" 
	d="
M376.490356,178.728226 
	C376.007721,178.877426 375.609711,178.696915 375.110168,178.316086 
	C375.348511,178.004608 375.688293,177.893448 376.295410,177.750031 
	C376.566772,177.944687 376.570831,178.171585 376.490356,178.728226 
z"/>
</svg>